<svg xmlns="http://www.w3.org/2000/svg" width="920" height="560" viewBox="0 0 920 560">
<rect width="100%" height="100%" fill="white"/>
<text x="28" y="38" font-family="Arial" font-size="24" font-weight="700" fill="#111827">Ant Parameter Variation</text>
<text x="28" y="64" font-family="Arial" font-size="13" fill="#4b5563">Each colored dot is one test run. Black diamonds and labels show the average for each tested value (20 runs per value). Lower is better.</text>
<text x="28" y="84" font-family="Arial" font-size="13" fill="#111827">Best value: 0.1 = 15,542 | Overall average: 15,558</text>
<line x1="92" y1="468.00" x2="876" y2="468.00" stroke="#e5e7eb" stroke-width="1"/>
<text x="80" y="472.00" font-family="Arial" font-size="11" fill="#4b5563" text-anchor="end">14,388</text>
<line x1="92" y1="394.40" x2="876" y2="394.40" stroke="#e5e7eb" stroke-width="1"/>
<text x="80" y="398.40" font-family="Arial" font-size="11" fill="#4b5563" text-anchor="end">14,890</text>
<line x1="92" y1="320.80" x2="876" y2="320.80" stroke="#e5e7eb" stroke-width="1"/>
<text x="80" y="324.80" font-family="Arial" font-size="11" fill="#4b5563" text-anchor="end">15,393</text>
<line x1="92" y1="247.20" x2="876" y2="247.20" stroke="#e5e7eb" stroke-width="1"/>
<text x="80" y="251.20" font-family="Arial" font-size="11" fill="#4b5563" text-anchor="end">15,895</text>
<line x1="92" y1="173.60" x2="876" y2="173.60" stroke="#e5e7eb" stroke-width="1"/>
<text x="80" y="177.60" font-family="Arial" font-size="11" fill="#4b5563" text-anchor="end">16,397</text>
<line x1="92" y1="100.00" x2="876" y2="100.00" stroke="#e5e7eb" stroke-width="1"/>
<text x="80" y="104.00" font-family="Arial" font-size="11" fill="#4b5563" text-anchor="end">16,900</text>
<line x1="146.07" y1="100" x2="146.07" y2="468" stroke="#f3f4f6" stroke-width="1"/>
<text x="146.07" y="494" font-family="Arial" font-size="12" fill="#374151" text-anchor="middle">0</text>
<line x1="315.03" y1="100" x2="315.03" y2="468" stroke="#f3f4f6" stroke-width="1"/>
<text x="315.03" y="494" font-family="Arial" font-size="12" fill="#374151" text-anchor="middle">0.05</text>
<line x1="484.00" y1="100" x2="484.00" y2="468" stroke="#f3f4f6" stroke-width="1"/>
<text x="484.00" y="494" font-family="Arial" font-size="12" fill="#374151" text-anchor="middle">0.1</text>
<line x1="652.97" y1="100" x2="652.97" y2="468" stroke="#f3f4f6" stroke-width="1"/>
<text x="652.97" y="494" font-family="Arial" font-size="12" fill="#374151" text-anchor="middle">0.15</text>
<line x1="821.93" y1="100" x2="821.93" y2="468" stroke="#f3f4f6" stroke-width="1"/>
<text x="821.93" y="494" font-family="Arial" font-size="12" fill="#374151" text-anchor="middle">0.2</text>
<line x1="92" y1="468" x2="876" y2="468" stroke="#9ca3af"/>
<line x1="92" y1="100" x2="92" y2="468" stroke="#9ca3af"/>
<polyline fill="none" stroke="#111827" stroke-width="1.4" opacity="0.55" stroke-dasharray="5 5" points="146.07,296.67 315.03,292.18 484.00,298.98 652.97,296.57 821.93,298.33"/>
<circle cx="129.07" cy="426.68" r="3.2" fill="#7c3aed" opacity="0.68"/>
<circle cx="130.86" cy="304.26" r="3.2" fill="#7c3aed" opacity="0.68"/>
<circle cx="132.65" cy="291.17" r="3.2" fill="#7c3aed" opacity="0.68"/>
<circle cx="134.44" cy="128.53" r="3.2" fill="#7c3aed" opacity="0.68"/>
<circle cx="136.23" cy="204.13" r="3.2" fill="#7c3aed" opacity="0.68"/>
<circle cx="138.02" cy="375.21" r="3.2" fill="#7c3aed" opacity="0.68"/>
<circle cx="139.81" cy="250.40" r="3.2" fill="#7c3aed" opacity="0.68"/>
<circle cx="141.60" cy="260.87" r="3.2" fill="#7c3aed" opacity="0.68"/>
<circle cx="143.38" cy="183.41" r="3.2" fill="#7c3aed" opacity="0.68"/>
<circle cx="145.17" cy="268.95" r="3.2" fill="#7c3aed" opacity="0.68"/>
<circle cx="146.96" cy="310.84" r="3.2" fill="#7c3aed" opacity="0.68"/>
<circle cx="148.75" cy="255.79" r="3.2" fill="#7c3aed" opacity="0.68"/>
<circle cx="150.54" cy="359.28" r="3.2" fill="#7c3aed" opacity="0.68"/>
<circle cx="152.33" cy="277.39" r="3.2" fill="#7c3aed" opacity="0.68"/>
<circle cx="154.12" cy="352.91" r="3.2" fill="#7c3aed" opacity="0.68"/>
<circle cx="155.91" cy="337.64" r="3.2" fill="#7c3aed" opacity="0.68"/>
<circle cx="157.70" cy="328.36" r="3.2" fill="#7c3aed" opacity="0.68"/>
<circle cx="159.49" cy="323.58" r="3.2" fill="#7c3aed" opacity="0.68"/>
<circle cx="161.28" cy="338.18" r="3.2" fill="#7c3aed" opacity="0.68"/>
<circle cx="163.07" cy="355.88" r="3.2" fill="#7c3aed" opacity="0.68"/>
<line x1="128.07" y1="296.67" x2="164.07" y2="296.67" stroke="#111827" stroke-width="2.1"/>
<polygon points="146.07,290.67 152.07,296.67 146.07,302.67 140.07,296.67" fill="#111827"/>
<text x="146.07" y="281.67" font-family="Arial" font-size="11" fill="#111827" text-anchor="middle">avg 15,557</text>
<circle cx="298.03" cy="438.83" r="3.2" fill="#7c3aed" opacity="0.68"/>
<circle cx="299.82" cy="305.88" r="3.2" fill="#7c3aed" opacity="0.68"/>
<circle cx="301.61" cy="275.18" r="3.2" fill="#7c3aed" opacity="0.68"/>
<circle cx="303.40" cy="137.63" r="3.2" fill="#7c3aed" opacity="0.68"/>
<circle cx="305.19" cy="200.83" r="3.2" fill="#7c3aed" opacity="0.68"/>
<circle cx="306.98" cy="381.20" r="3.2" fill="#7c3aed" opacity="0.68"/>
<circle cx="308.77" cy="272.60" r="3.2" fill="#7c3aed" opacity="0.68"/>
<circle cx="310.56" cy="264.19" r="3.2" fill="#7c3aed" opacity="0.68"/>
<circle cx="312.35" cy="172.29" r="3.2" fill="#7c3aed" opacity="0.68"/>
<circle cx="314.14" cy="268.95" r="3.2" fill="#7c3aed" opacity="0.68"/>
<circle cx="315.93" cy="276.12" r="3.2" fill="#7c3aed" opacity="0.68"/>
<circle cx="317.72" cy="259.53" r="3.2" fill="#7c3aed" opacity="0.68"/>
<circle cx="319.51" cy="340.23" r="3.2" fill="#7c3aed" opacity="0.68"/>
<circle cx="321.30" cy="257.32" r="3.2" fill="#7c3aed" opacity="0.68"/>
<circle cx="323.09" cy="358.60" r="3.2" fill="#7c3aed" opacity="0.68"/>
<circle cx="324.88" cy="340.94" r="3.2" fill="#7c3aed" opacity="0.68"/>
<circle cx="326.67" cy="330.14" r="3.2" fill="#7c3aed" opacity="0.68"/>
<circle cx="328.46" cy="307.86" r="3.2" fill="#7c3aed" opacity="0.68"/>
<circle cx="330.25" cy="291.08" r="3.2" fill="#7c3aed" opacity="0.68"/>
<circle cx="332.03" cy="364.12" r="3.2" fill="#7c3aed" opacity="0.68"/>
<line x1="297.03" y1="292.18" x2="333.03" y2="292.18" stroke="#111827" stroke-width="2.1"/>
<polygon points="315.03,286.18 321.03,292.18 315.03,298.18 309.03,292.18" fill="#111827"/>
<text x="315.03" y="277.18" font-family="Arial" font-size="11" fill="#111827" text-anchor="middle">avg 15,588</text>
<circle cx="467.00" cy="442.62" r="3.2" fill="#7c3aed" opacity="0.68"/>
<circle cx="468.79" cy="324.69" r="3.2" fill="#7c3aed" opacity="0.68"/>
<circle cx="470.58" cy="260.03" r="3.2" fill="#7c3aed" opacity="0.68"/>
<circle cx="472.37" cy="136.91" r="3.2" fill="#7c3aed" opacity="0.68"/>
<circle cx="474.16" cy="213.63" r="3.2" fill="#7c3aed" opacity="0.68"/>
<circle cx="475.95" cy="403.07" r="3.2" fill="#7c3aed" opacity="0.68"/>
<circle cx="477.74" cy="239.16" r="3.2" fill="#7c3aed" opacity="0.68"/>
<circle cx="479.53" cy="263.46" r="3.2" fill="#7c3aed" opacity="0.68"/>
<circle cx="481.32" cy="190.31" r="3.2" fill="#7c3aed" opacity="0.68"/>
<circle cx="483.11" cy="268.95" r="3.2" fill="#7c3aed" opacity="0.68"/>
<circle cx="484.89" cy="304.89" r="3.2" fill="#7c3aed" opacity="0.68"/>
<circle cx="486.68" cy="244.83" r="3.2" fill="#7c3aed" opacity="0.68"/>
<circle cx="488.47" cy="346.39" r="3.2" fill="#7c3aed" opacity="0.68"/>
<circle cx="490.26" cy="281.34" r="3.2" fill="#7c3aed" opacity="0.68"/>
<circle cx="492.05" cy="358.60" r="3.2" fill="#7c3aed" opacity="0.68"/>
<circle cx="493.84" cy="339.43" r="3.2" fill="#7c3aed" opacity="0.68"/>
<circle cx="495.63" cy="331.56" r="3.2" fill="#7c3aed" opacity="0.68"/>
<circle cx="497.42" cy="325.08" r="3.2" fill="#7c3aed" opacity="0.68"/>
<circle cx="499.21" cy="329.76" r="3.2" fill="#7c3aed" opacity="0.68"/>
<circle cx="501.00" cy="374.90" r="3.2" fill="#7c3aed" opacity="0.68"/>
<line x1="466.00" y1="298.98" x2="502.00" y2="298.98" stroke="#111827" stroke-width="2.1"/>
<polygon points="484.00,292.98 490.00,298.98 484.00,304.98 478.00,298.98" fill="#111827"/>
<circle cx="484.00" cy="298.98" r="9" fill="none" stroke="#111827" stroke-width="1.6"/>
<text x="484.00" y="283.98" font-family="Arial" font-size="11" fill="#111827" text-anchor="middle">avg 15,542</text>
<circle cx="635.97" cy="442.62" r="3.2" fill="#7c3aed" opacity="0.68"/>
<circle cx="637.75" cy="340.69" r="3.2" fill="#7c3aed" opacity="0.68"/>
<circle cx="639.54" cy="291.17" r="3.2" fill="#7c3aed" opacity="0.68"/>
<circle cx="641.33" cy="143.54" r="3.2" fill="#7c3aed" opacity="0.68"/>
<circle cx="643.12" cy="205.63" r="3.2" fill="#7c3aed" opacity="0.68"/>
<circle cx="644.91" cy="403.07" r="3.2" fill="#7c3aed" opacity="0.68"/>
<circle cx="646.70" cy="299.57" r="3.2" fill="#7c3aed" opacity="0.68"/>
<circle cx="648.49" cy="194.83" r="3.2" fill="#7c3aed" opacity="0.68"/>
<circle cx="650.28" cy="194.20" r="3.2" fill="#7c3aed" opacity="0.68"/>
<circle cx="652.07" cy="268.95" r="3.2" fill="#7c3aed" opacity="0.68"/>
<circle cx="653.86" cy="313.87" r="3.2" fill="#7c3aed" opacity="0.68"/>
<circle cx="655.65" cy="232.75" r="3.2" fill="#7c3aed" opacity="0.68"/>
<circle cx="657.44" cy="357.89" r="3.2" fill="#7c3aed" opacity="0.68"/>
<circle cx="659.23" cy="278.95" r="3.2" fill="#7c3aed" opacity="0.68"/>
<circle cx="661.02" cy="325.12" r="3.2" fill="#7c3aed" opacity="0.68"/>
<circle cx="662.81" cy="338.10" r="3.2" fill="#7c3aed" opacity="0.68"/>
<circle cx="664.60" cy="336.01" r="3.2" fill="#7c3aed" opacity="0.68"/>
<circle cx="666.39" cy="325.21" r="3.2" fill="#7c3aed" opacity="0.68"/>
<circle cx="668.18" cy="276.37" r="3.2" fill="#7c3aed" opacity="0.68"/>
<circle cx="669.97" cy="362.90" r="3.2" fill="#7c3aed" opacity="0.68"/>
<line x1="634.97" y1="296.57" x2="670.97" y2="296.57" stroke="#111827" stroke-width="2.1"/>
<polygon points="652.97,290.57 658.97,296.57 652.97,302.57 646.97,296.57" fill="#111827"/>
<text x="652.97" y="281.57" font-family="Arial" font-size="11" fill="#111827" text-anchor="middle">avg 15,558</text>
<circle cx="804.93" cy="442.62" r="3.2" fill="#7c3aed" opacity="0.68"/>
<circle cx="806.72" cy="343.00" r="3.2" fill="#7c3aed" opacity="0.68"/>
<circle cx="808.51" cy="291.17" r="3.2" fill="#7c3aed" opacity="0.68"/>
<circle cx="810.30" cy="125.38" r="3.2" fill="#7c3aed" opacity="0.68"/>
<circle cx="812.09" cy="212.17" r="3.2" fill="#7c3aed" opacity="0.68"/>
<circle cx="813.88" cy="410.19" r="3.2" fill="#7c3aed" opacity="0.68"/>
<circle cx="815.67" cy="251.61" r="3.2" fill="#7c3aed" opacity="0.68"/>
<circle cx="817.46" cy="261.97" r="3.2" fill="#7c3aed" opacity="0.68"/>
<circle cx="819.25" cy="190.16" r="3.2" fill="#7c3aed" opacity="0.68"/>
<circle cx="821.04" cy="246.76" r="3.2" fill="#7c3aed" opacity="0.68"/>
<circle cx="822.83" cy="313.87" r="3.2" fill="#7c3aed" opacity="0.68"/>
<circle cx="824.62" cy="243.02" r="3.2" fill="#7c3aed" opacity="0.68"/>
<circle cx="826.40" cy="362.77" r="3.2" fill="#7c3aed" opacity="0.68"/>
<circle cx="828.19" cy="291.76" r="3.2" fill="#7c3aed" opacity="0.68"/>
<circle cx="829.98" cy="352.91" r="3.2" fill="#7c3aed" opacity="0.68"/>
<circle cx="831.77" cy="327.77" r="3.2" fill="#7c3aed" opacity="0.68"/>
<circle cx="833.56" cy="331.62" r="3.2" fill="#7c3aed" opacity="0.68"/>
<circle cx="835.35" cy="330.74" r="3.2" fill="#7c3aed" opacity="0.68"/>
<circle cx="837.14" cy="290.87" r="3.2" fill="#7c3aed" opacity="0.68"/>
<circle cx="838.93" cy="346.24" r="3.2" fill="#7c3aed" opacity="0.68"/>
<line x1="803.93" y1="298.33" x2="839.93" y2="298.33" stroke="#111827" stroke-width="2.1"/>
<polygon points="821.93,292.33 827.93,298.33 821.93,304.33 815.93,298.33" fill="#111827"/>
<text x="821.93" y="283.33" font-family="Arial" font-size="11" fill="#111827" text-anchor="middle">avg 15,546</text>
<text x="484.00" y="528" font-family="Arial" font-size="12" fill="#4b5563" text-anchor="middle">Tested value</text>
<text x="20" y="284.00" font-family="Arial" font-size="12" fill="#4b5563" text-anchor="middle" transform="rotate(-90 20 284.00)">Best distance</text>
</svg>