<svg xmlns="http://www.w3.org/2000/svg" width="1280" height="980" viewBox="0 0 1280 980">
<rect width="100%" height="100%" fill="white"/>
<text x="48" y="84" font-family="Arial" font-size="52" font-weight="700" fill="#111827">Blind Iterations</text>
<line x1="158" y1="700.00" x2="1226" y2="700.00" stroke="#e5e7eb" stroke-width="1.4"/>
<text x="140" y="710.00" font-family="Arial" font-size="28" fill="#4b5563" text-anchor="end">14,391</text>
<line x1="158" y1="587.20" x2="1226" y2="587.20" stroke="#e5e7eb" stroke-width="1.4"/>
<text x="140" y="597.20" font-family="Arial" font-size="28" fill="#4b5563" text-anchor="end">14,884</text>
<line x1="158" y1="474.40" x2="1226" y2="474.40" stroke="#e5e7eb" stroke-width="1.4"/>
<text x="140" y="484.40" font-family="Arial" font-size="28" fill="#4b5563" text-anchor="end">15,378</text>
<line x1="158" y1="361.60" x2="1226" y2="361.60" stroke="#e5e7eb" stroke-width="1.4"/>
<text x="140" y="371.60" font-family="Arial" font-size="28" fill="#4b5563" text-anchor="end">15,871</text>
<line x1="158" y1="248.80" x2="1226" y2="248.80" stroke="#e5e7eb" stroke-width="1.4"/>
<text x="140" y="258.80" font-family="Arial" font-size="28" fill="#4b5563" text-anchor="end">16,364</text>
<line x1="158" y1="136.00" x2="1226" y2="136.00" stroke="#e5e7eb" stroke-width="1.4"/>
<text x="140" y="146.00" font-family="Arial" font-size="28" fill="#4b5563" text-anchor="end">16,857</text>
<line x1="231.66" y1="136" x2="231.66" y2="700" stroke="#f3f4f6" stroke-width="1.2"/>
<text x="231.66" y="744" font-family="Arial" font-size="28" fill="#374151" text-anchor="middle">1</text>
<line x1="436.25" y1="136" x2="436.25" y2="700" stroke="#f3f4f6" stroke-width="1.2"/>
<text x="436.25" y="744" font-family="Arial" font-size="28" fill="#374151" text-anchor="middle">3</text>
<line x1="640.85" y1="136" x2="640.85" y2="700" stroke="#f3f4f6" stroke-width="1.2"/>
<text x="640.85" y="744" font-family="Arial" font-size="28" fill="#374151" text-anchor="middle">5</text>
<line x1="947.75" y1="136" x2="947.75" y2="700" stroke="#f3f4f6" stroke-width="1.2"/>
<text x="947.75" y="744" font-family="Arial" font-size="28" fill="#374151" text-anchor="middle">8</text>
<line x1="1152.34" y1="136" x2="1152.34" y2="700" stroke="#f3f4f6" stroke-width="1.2"/>
<text x="1152.34" y="744" font-family="Arial" font-size="28" fill="#374151" text-anchor="middle">10</text>
<line x1="158" y1="700" x2="1226" y2="700" stroke="#9ca3af" stroke-width="1.5"/>
<line x1="158" y1="136" x2="158" y2="700" stroke="#9ca3af" stroke-width="1.5"/>
<polyline fill="none" stroke="#111827" stroke-width="2.5" opacity="0.60" stroke-dasharray="8 8" points="231.66,430.92 436.25,438.73 640.85,436.88 947.75,437.01 1152.34,432.52"/>
<circle cx="202.66" cy="661.10" r="5.8" fill="#16a34a" opacity="0.68"/>
<circle cx="205.71" cy="406.77" r="5.8" fill="#16a34a" opacity="0.68"/>
<circle cx="208.76" cy="376.07" r="5.8" fill="#16a34a" opacity="0.68"/>
<circle cx="211.81" cy="174.90" r="5.8" fill="#16a34a" opacity="0.68"/>
<circle cx="214.87" cy="303.65" r="5.8" fill="#16a34a" opacity="0.68"/>
<circle cx="217.92" cy="571.98" r="5.8" fill="#16a34a" opacity="0.68"/>
<circle cx="220.97" cy="354.90" r="5.8" fill="#16a34a" opacity="0.68"/>
<circle cx="224.02" cy="382.57" r="5.8" fill="#16a34a" opacity="0.68"/>
<circle cx="227.08" cy="250.32" r="5.8" fill="#16a34a" opacity="0.68"/>
<circle cx="230.13" cy="387.88" r="5.8" fill="#16a34a" opacity="0.68"/>
<circle cx="233.18" cy="446.10" r="5.8" fill="#16a34a" opacity="0.68"/>
<circle cx="236.23" cy="350.91" r="5.8" fill="#16a34a" opacity="0.68"/>
<circle cx="239.29" cy="510.89" r="5.8" fill="#16a34a" opacity="0.68"/>
<circle cx="242.34" cy="409.33" r="5.8" fill="#16a34a" opacity="0.68"/>
<circle cx="245.39" cy="529.95" r="5.8" fill="#16a34a" opacity="0.68"/>
<circle cx="248.44" cy="516.85" r="5.8" fill="#16a34a" opacity="0.68"/>
<circle cx="251.50" cy="485.52" r="5.8" fill="#16a34a" opacity="0.68"/>
<circle cx="254.55" cy="458.29" r="5.8" fill="#16a34a" opacity="0.68"/>
<circle cx="257.60" cy="484.93" r="5.8" fill="#16a34a" opacity="0.68"/>
<circle cx="260.66" cy="555.40" r="5.8" fill="#16a34a" opacity="0.68"/>
<line x1="203.66" y1="430.92" x2="259.66" y2="430.92" stroke="#111827" stroke-width="3.6"/>
<polygon points="231.66,418.92 243.66,430.92 231.66,442.92 219.66,430.92" fill="#111827"/>
<text x="231.66" y="400.92" font-family="Arial" font-size="22" fill="#111827" text-anchor="middle">avg 15,568</text>
<circle cx="407.25" cy="661.10" r="5.8" fill="#16a34a" opacity="0.68"/>
<circle cx="410.31" cy="465.41" r="5.8" fill="#16a34a" opacity="0.68"/>
<circle cx="413.36" cy="415.52" r="5.8" fill="#16a34a" opacity="0.68"/>
<circle cx="416.41" cy="174.90" r="5.8" fill="#16a34a" opacity="0.68"/>
<circle cx="419.46" cy="303.65" r="5.8" fill="#16a34a" opacity="0.68"/>
<circle cx="422.52" cy="599.36" r="5.8" fill="#16a34a" opacity="0.68"/>
<circle cx="425.57" cy="369.66" r="5.8" fill="#16a34a" opacity="0.68"/>
<circle cx="428.62" cy="381.43" r="5.8" fill="#16a34a" opacity="0.68"/>
<circle cx="431.67" cy="256.17" r="5.8" fill="#16a34a" opacity="0.68"/>
<circle cx="434.73" cy="389.99" r="5.8" fill="#16a34a" opacity="0.68"/>
<circle cx="437.78" cy="451.39" r="5.8" fill="#16a34a" opacity="0.68"/>
<circle cx="440.83" cy="350.91" r="5.8" fill="#16a34a" opacity="0.68"/>
<circle cx="443.88" cy="514.26" r="5.8" fill="#16a34a" opacity="0.68"/>
<circle cx="446.94" cy="409.33" r="5.8" fill="#16a34a" opacity="0.68"/>
<circle cx="449.99" cy="529.95" r="5.8" fill="#16a34a" opacity="0.68"/>
<circle cx="453.04" cy="506.84" r="5.8" fill="#16a34a" opacity="0.68"/>
<circle cx="456.09" cy="485.52" r="5.8" fill="#16a34a" opacity="0.68"/>
<circle cx="459.15" cy="468.82" r="5.8" fill="#16a34a" opacity="0.68"/>
<circle cx="462.20" cy="484.93" r="5.8" fill="#16a34a" opacity="0.68"/>
<circle cx="465.25" cy="555.40" r="5.8" fill="#16a34a" opacity="0.68"/>
<line x1="408.25" y1="438.73" x2="464.25" y2="438.73" stroke="#111827" stroke-width="3.6"/>
<polygon points="436.25,426.73 448.25,438.73 436.25,450.73 424.25,438.73" fill="#111827"/>
<circle cx="436.25" cy="438.73" r="18" fill="none" stroke="#111827" stroke-width="2.8"/>
<text x="436.25" y="408.73" font-family="Arial" font-size="22" fill="#111827" text-anchor="middle">avg 15,534</text>
<circle cx="611.85" cy="661.10" r="5.8" fill="#16a34a" opacity="0.68"/>
<circle cx="614.90" cy="477.02" r="5.8" fill="#16a34a" opacity="0.68"/>
<circle cx="617.96" cy="376.07" r="5.8" fill="#16a34a" opacity="0.68"/>
<circle cx="621.01" cy="183.89" r="5.8" fill="#16a34a" opacity="0.68"/>
<circle cx="624.06" cy="303.65" r="5.8" fill="#16a34a" opacity="0.68"/>
<circle cx="627.11" cy="599.36" r="5.8" fill="#16a34a" opacity="0.68"/>
<circle cx="630.17" cy="343.49" r="5.8" fill="#16a34a" opacity="0.68"/>
<circle cx="633.22" cy="381.43" r="5.8" fill="#16a34a" opacity="0.68"/>
<circle cx="636.27" cy="267.23" r="5.8" fill="#16a34a" opacity="0.68"/>
<circle cx="639.32" cy="389.99" r="5.8" fill="#16a34a" opacity="0.68"/>
<circle cx="642.38" cy="446.10" r="5.8" fill="#16a34a" opacity="0.68"/>
<circle cx="645.43" cy="352.35" r="5.8" fill="#16a34a" opacity="0.68"/>
<circle cx="648.48" cy="510.89" r="5.8" fill="#16a34a" opacity="0.68"/>
<circle cx="651.53" cy="409.33" r="5.8" fill="#16a34a" opacity="0.68"/>
<circle cx="654.59" cy="529.95" r="5.8" fill="#16a34a" opacity="0.68"/>
<circle cx="657.64" cy="500.03" r="5.8" fill="#16a34a" opacity="0.68"/>
<circle cx="660.69" cy="487.74" r="5.8" fill="#16a34a" opacity="0.68"/>
<circle cx="663.75" cy="477.62" r="5.8" fill="#16a34a" opacity="0.68"/>
<circle cx="666.80" cy="484.93" r="5.8" fill="#16a34a" opacity="0.68"/>
<circle cx="669.85" cy="555.40" r="5.8" fill="#16a34a" opacity="0.68"/>
<line x1="612.85" y1="436.88" x2="668.85" y2="436.88" stroke="#111827" stroke-width="3.6"/>
<polygon points="640.85,424.88 652.85,436.88 640.85,448.88 628.85,436.88" fill="#111827"/>
<text x="640.85" y="406.88" font-family="Arial" font-size="22" fill="#111827" text-anchor="middle">avg 15,542</text>
<circle cx="918.75" cy="661.10" r="5.8" fill="#16a34a" opacity="0.68"/>
<circle cx="921.80" cy="406.77" r="5.8" fill="#16a34a" opacity="0.68"/>
<circle cx="924.85" cy="392.93" r="5.8" fill="#16a34a" opacity="0.68"/>
<circle cx="927.91" cy="174.90" r="5.8" fill="#16a34a" opacity="0.68"/>
<circle cx="930.96" cy="303.65" r="5.8" fill="#16a34a" opacity="0.68"/>
<circle cx="934.01" cy="599.36" r="5.8" fill="#16a34a" opacity="0.68"/>
<circle cx="937.06" cy="381.16" r="5.8" fill="#16a34a" opacity="0.68"/>
<circle cx="940.12" cy="382.57" r="5.8" fill="#16a34a" opacity="0.68"/>
<circle cx="943.17" cy="268.90" r="5.8" fill="#16a34a" opacity="0.68"/>
<circle cx="946.22" cy="387.88" r="5.8" fill="#16a34a" opacity="0.68"/>
<circle cx="949.27" cy="446.10" r="5.8" fill="#16a34a" opacity="0.68"/>
<circle cx="952.33" cy="350.91" r="5.8" fill="#16a34a" opacity="0.68"/>
<circle cx="955.38" cy="529.52" r="5.8" fill="#16a34a" opacity="0.68"/>
<circle cx="958.43" cy="409.33" r="5.8" fill="#16a34a" opacity="0.68"/>
<circle cx="961.48" cy="529.95" r="5.8" fill="#16a34a" opacity="0.68"/>
<circle cx="964.54" cy="502.83" r="5.8" fill="#16a34a" opacity="0.68"/>
<circle cx="967.59" cy="485.52" r="5.8" fill="#16a34a" opacity="0.68"/>
<circle cx="970.64" cy="486.45" r="5.8" fill="#16a34a" opacity="0.68"/>
<circle cx="973.69" cy="484.93" r="5.8" fill="#16a34a" opacity="0.68"/>
<circle cx="976.75" cy="555.40" r="5.8" fill="#16a34a" opacity="0.68"/>
<line x1="919.75" y1="437.01" x2="975.75" y2="437.01" stroke="#111827" stroke-width="3.6"/>
<polygon points="947.75,425.01 959.75,437.01 947.75,449.01 935.75,437.01" fill="#111827"/>
<text x="947.75" y="407.01" font-family="Arial" font-size="22" fill="#111827" text-anchor="middle">avg 15,541</text>
<circle cx="1123.34" cy="661.10" r="5.8" fill="#16a34a" opacity="0.68"/>
<circle cx="1126.40" cy="406.77" r="5.8" fill="#16a34a" opacity="0.68"/>
<circle cx="1129.45" cy="376.07" r="5.8" fill="#16a34a" opacity="0.68"/>
<circle cx="1132.50" cy="174.90" r="5.8" fill="#16a34a" opacity="0.68"/>
<circle cx="1135.56" cy="303.65" r="5.8" fill="#16a34a" opacity="0.68"/>
<circle cx="1138.61" cy="599.36" r="5.8" fill="#16a34a" opacity="0.68"/>
<circle cx="1141.66" cy="396.17" r="5.8" fill="#16a34a" opacity="0.68"/>
<circle cx="1144.71" cy="335.60" r="5.8" fill="#16a34a" opacity="0.68"/>
<circle cx="1147.77" cy="281.19" r="5.8" fill="#16a34a" opacity="0.68"/>
<circle cx="1150.82" cy="387.88" r="5.8" fill="#16a34a" opacity="0.68"/>
<circle cx="1153.87" cy="446.10" r="5.8" fill="#16a34a" opacity="0.68"/>
<circle cx="1156.92" cy="350.91" r="5.8" fill="#16a34a" opacity="0.68"/>
<circle cx="1159.98" cy="523.68" r="5.8" fill="#16a34a" opacity="0.68"/>
<circle cx="1163.03" cy="409.33" r="5.8" fill="#16a34a" opacity="0.68"/>
<circle cx="1166.08" cy="529.95" r="5.8" fill="#16a34a" opacity="0.68"/>
<circle cx="1169.13" cy="488.56" r="5.8" fill="#16a34a" opacity="0.68"/>
<circle cx="1172.19" cy="494.62" r="5.8" fill="#16a34a" opacity="0.68"/>
<circle cx="1175.24" cy="444.26" r="5.8" fill="#16a34a" opacity="0.68"/>
<circle cx="1178.29" cy="484.93" r="5.8" fill="#16a34a" opacity="0.68"/>
<circle cx="1181.34" cy="555.40" r="5.8" fill="#16a34a" opacity="0.68"/>
<line x1="1124.34" y1="432.52" x2="1180.34" y2="432.52" stroke="#111827" stroke-width="3.6"/>
<polygon points="1152.34,420.52 1164.34,432.52 1152.34,444.52 1140.34,432.52" fill="#111827"/>
<text x="1152.34" y="402.52" font-family="Arial" font-size="22" fill="#111827" text-anchor="middle">avg 15,561</text>
<circle cx="172" cy="852" r="10" fill="#16a34a" opacity="0.68"/>
<text x="204" y="862" font-family="Arial" font-size="30" fill="#374151">Colored dots: individual test runs (20 runs per value)</text>
<line x1="158" y1="920" x2="216" y2="920" stroke="#111827" stroke-width="3.8"/>
<polygon points="187.00,908.00 199.00,920.00 187.00,932.00 175.00,920.00" fill="#111827"/>
<text x="242" y="930" font-family="Arial" font-size="30" fill="#374151">Black marker: average for tested value</text>
<text x="692.00" y="796" font-family="Arial" font-size="32" fill="#4b5563" text-anchor="middle">Tested value</text>
<text x="42" y="418.00" font-family="Arial" font-size="32" fill="#4b5563" text-anchor="middle" transform="rotate(-90 42 418.00)">Best distance</text>
</svg>