<svg xmlns="http://www.w3.org/2000/svg" width="1280" height="980" viewBox="0 0 1280 980">
<rect width="100%" height="100%" fill="white"/>
<text x="48" y="84" font-family="Arial" font-size="52" font-weight="700" fill="#111827">Nearest Neighbor Pheromone</text>
<line x1="158" y1="700.00" x2="1226" y2="700.00" stroke="#e5e7eb" stroke-width="1.4"/>
<text x="140" y="710.00" font-family="Arial" font-size="28" fill="#4b5563" text-anchor="end">14,370</text>
<line x1="158" y1="587.20" x2="1226" y2="587.20" stroke="#e5e7eb" stroke-width="1.4"/>
<text x="140" y="597.20" font-family="Arial" font-size="28" fill="#4b5563" text-anchor="end">14,924</text>
<line x1="158" y1="474.40" x2="1226" y2="474.40" stroke="#e5e7eb" stroke-width="1.4"/>
<text x="140" y="484.40" font-family="Arial" font-size="28" fill="#4b5563" text-anchor="end">15,477</text>
<line x1="158" y1="361.60" x2="1226" y2="361.60" stroke="#e5e7eb" stroke-width="1.4"/>
<text x="140" y="371.60" font-family="Arial" font-size="28" fill="#4b5563" text-anchor="end">16,030</text>
<line x1="158" y1="248.80" x2="1226" y2="248.80" stroke="#e5e7eb" stroke-width="1.4"/>
<text x="140" y="258.80" font-family="Arial" font-size="28" fill="#4b5563" text-anchor="end">16,583</text>
<line x1="158" y1="136.00" x2="1226" y2="136.00" stroke="#e5e7eb" stroke-width="1.4"/>
<text x="140" y="146.00" font-family="Arial" font-size="28" fill="#4b5563" text-anchor="end">17,137</text>
<line x1="231.66" y1="136" x2="231.66" y2="700" stroke="#f3f4f6" stroke-width="1.2"/>
<text x="231.66" y="744" font-family="Arial" font-size="28" fill="#374151" text-anchor="middle">1</text>
<line x1="323.72" y1="136" x2="323.72" y2="700" stroke="#f3f4f6" stroke-width="1.2"/>
<text x="323.72" y="744" font-family="Arial" font-size="28" fill="#374151" text-anchor="middle">1.1</text>
<line x1="461.83" y1="136" x2="461.83" y2="700" stroke="#f3f4f6" stroke-width="1.2"/>
<text x="461.83" y="744" font-family="Arial" font-size="28" fill="#374151" text-anchor="middle">1.25</text>
<line x1="692.00" y1="136" x2="692.00" y2="700" stroke="#f3f4f6" stroke-width="1.2"/>
<text x="692.00" y="744" font-family="Arial" font-size="28" fill="#374151" text-anchor="middle">1.5</text>
<line x1="1152.34" y1="136" x2="1152.34" y2="700" stroke="#f3f4f6" stroke-width="1.2"/>
<text x="1152.34" y="744" font-family="Arial" font-size="28" fill="#374151" text-anchor="middle">2</text>
<line x1="158" y1="700" x2="1226" y2="700" stroke="#9ca3af" stroke-width="1.5"/>
<line x1="158" y1="136" x2="158" y2="700" stroke="#9ca3af" stroke-width="1.5"/>
<polyline fill="none" stroke="#111827" stroke-width="2.5" opacity="0.60" stroke-dasharray="8 8" points="231.66,461.58 323.72,461.20 461.83,456.28 692.00,464.42 1152.34,466.85"/>
<circle cx="202.66" cy="661.10" r="5.8" fill="#2563eb" opacity="0.68"/>
<circle cx="205.71" cy="498.95" r="5.8" fill="#2563eb" opacity="0.68"/>
<circle cx="208.76" cy="418.17" r="5.8" fill="#2563eb" opacity="0.68"/>
<circle cx="211.81" cy="174.90" r="5.8" fill="#2563eb" opacity="0.68"/>
<circle cx="214.87" cy="338.79" r="5.8" fill="#2563eb" opacity="0.68"/>
<circle cx="217.92" cy="606.06" r="5.8" fill="#2563eb" opacity="0.68"/>
<circle cx="220.97" cy="410.32" r="5.8" fill="#2563eb" opacity="0.68"/>
<circle cx="224.02" cy="411.77" r="5.8" fill="#2563eb" opacity="0.68"/>
<circle cx="227.08" cy="318.61" r="5.8" fill="#2563eb" opacity="0.68"/>
<circle cx="230.13" cy="398.43" r="5.8" fill="#2563eb" opacity="0.68"/>
<circle cx="233.18" cy="481.93" r="5.8" fill="#2563eb" opacity="0.68"/>
<circle cx="236.23" cy="389.76" r="5.8" fill="#2563eb" opacity="0.68"/>
<circle cx="239.29" cy="543.79" r="5.8" fill="#2563eb" opacity="0.68"/>
<circle cx="242.34" cy="431.62" r="5.8" fill="#2563eb" opacity="0.68"/>
<circle cx="245.39" cy="543.50" r="5.8" fill="#2563eb" opacity="0.68"/>
<circle cx="248.44" cy="553.53" r="5.8" fill="#2563eb" opacity="0.68"/>
<circle cx="251.50" cy="506.54" r="5.8" fill="#2563eb" opacity="0.68"/>
<circle cx="254.55" cy="500.66" r="5.8" fill="#2563eb" opacity="0.68"/>
<circle cx="257.60" cy="491.35" r="5.8" fill="#2563eb" opacity="0.68"/>
<circle cx="260.66" cy="551.85" r="5.8" fill="#2563eb" opacity="0.68"/>
<line x1="203.66" y1="461.58" x2="259.66" y2="461.58" stroke="#111827" stroke-width="3.6"/>
<polygon points="231.66,449.58 243.66,461.58 231.66,473.58 219.66,461.58" fill="#111827"/>
<text x="231.66" y="431.58" font-family="Arial" font-size="22" fill="#111827" text-anchor="middle">avg 15,540</text>
<circle cx="294.72" cy="661.10" r="5.8" fill="#2563eb" opacity="0.68"/>
<circle cx="297.78" cy="496.98" r="5.8" fill="#2563eb" opacity="0.68"/>
<circle cx="300.83" cy="406.99" r="5.8" fill="#2563eb" opacity="0.68"/>
<circle cx="303.88" cy="235.65" r="5.8" fill="#2563eb" opacity="0.68"/>
<circle cx="306.93" cy="342.42" r="5.8" fill="#2563eb" opacity="0.68"/>
<circle cx="309.99" cy="606.06" r="5.8" fill="#2563eb" opacity="0.68"/>
<circle cx="313.04" cy="377.95" r="5.8" fill="#2563eb" opacity="0.68"/>
<circle cx="316.09" cy="411.77" r="5.8" fill="#2563eb" opacity="0.68"/>
<circle cx="319.15" cy="309.96" r="5.8" fill="#2563eb" opacity="0.68"/>
<circle cx="322.20" cy="419.40" r="5.8" fill="#2563eb" opacity="0.68"/>
<circle cx="325.25" cy="469.42" r="5.8" fill="#2563eb" opacity="0.68"/>
<circle cx="328.30" cy="385.84" r="5.8" fill="#2563eb" opacity="0.68"/>
<circle cx="331.36" cy="527.18" r="5.8" fill="#2563eb" opacity="0.68"/>
<circle cx="334.41" cy="436.64" r="5.8" fill="#2563eb" opacity="0.68"/>
<circle cx="337.46" cy="544.18" r="5.8" fill="#2563eb" opacity="0.68"/>
<circle cx="340.51" cy="517.50" r="5.8" fill="#2563eb" opacity="0.68"/>
<circle cx="343.57" cy="506.54" r="5.8" fill="#2563eb" opacity="0.68"/>
<circle cx="346.62" cy="497.52" r="5.8" fill="#2563eb" opacity="0.68"/>
<circle cx="349.67" cy="504.04" r="5.8" fill="#2563eb" opacity="0.68"/>
<circle cx="352.72" cy="566.86" r="5.8" fill="#2563eb" opacity="0.68"/>
<line x1="295.72" y1="461.20" x2="351.72" y2="461.20" stroke="#111827" stroke-width="3.6"/>
<polygon points="323.72,449.20 335.72,461.20 323.72,473.20 311.72,461.20" fill="#111827"/>
<text x="323.72" y="431.20" font-family="Arial" font-size="22" fill="#111827" text-anchor="middle">avg 15,542</text>
<circle cx="432.83" cy="659.05" r="5.8" fill="#2563eb" opacity="0.68"/>
<circle cx="435.88" cy="445.95" r="5.8" fill="#2563eb" opacity="0.68"/>
<circle cx="438.93" cy="438.07" r="5.8" fill="#2563eb" opacity="0.68"/>
<circle cx="441.99" cy="174.90" r="5.8" fill="#2563eb" opacity="0.68"/>
<circle cx="445.04" cy="338.79" r="5.8" fill="#2563eb" opacity="0.68"/>
<circle cx="448.09" cy="615.97" r="5.8" fill="#2563eb" opacity="0.68"/>
<circle cx="451.14" cy="383.61" r="5.8" fill="#2563eb" opacity="0.68"/>
<circle cx="454.20" cy="411.77" r="5.8" fill="#2563eb" opacity="0.68"/>
<circle cx="457.25" cy="308.55" r="5.8" fill="#2563eb" opacity="0.68"/>
<circle cx="460.30" cy="419.40" r="5.8" fill="#2563eb" opacity="0.68"/>
<circle cx="463.35" cy="458.93" r="5.8" fill="#2563eb" opacity="0.68"/>
<circle cx="466.41" cy="408.23" r="5.8" fill="#2563eb" opacity="0.68"/>
<circle cx="469.46" cy="520.16" r="5.8" fill="#2563eb" opacity="0.68"/>
<circle cx="472.51" cy="431.62" r="5.8" fill="#2563eb" opacity="0.68"/>
<circle cx="475.56" cy="544.18" r="5.8" fill="#2563eb" opacity="0.68"/>
<circle cx="478.62" cy="517.50" r="5.8" fill="#2563eb" opacity="0.68"/>
<circle cx="481.67" cy="506.54" r="5.8" fill="#2563eb" opacity="0.68"/>
<circle cx="484.72" cy="497.52" r="5.8" fill="#2563eb" opacity="0.68"/>
<circle cx="487.77" cy="487.68" r="5.8" fill="#2563eb" opacity="0.68"/>
<circle cx="490.83" cy="557.26" r="5.8" fill="#2563eb" opacity="0.68"/>
<line x1="433.83" y1="456.28" x2="489.83" y2="456.28" stroke="#111827" stroke-width="3.6"/>
<polygon points="461.83,444.28 473.83,456.28 461.83,468.28 449.83,456.28" fill="#111827"/>
<text x="461.83" y="426.28" font-family="Arial" font-size="22" fill="#111827" text-anchor="middle">avg 15,566</text>
<circle cx="663.00" cy="661.10" r="5.8" fill="#2563eb" opacity="0.68"/>
<circle cx="666.05" cy="506.37" r="5.8" fill="#2563eb" opacity="0.68"/>
<circle cx="669.11" cy="429.90" r="5.8" fill="#2563eb" opacity="0.68"/>
<circle cx="672.16" cy="235.40" r="5.8" fill="#2563eb" opacity="0.68"/>
<circle cx="675.21" cy="330.10" r="5.8" fill="#2563eb" opacity="0.68"/>
<circle cx="678.26" cy="606.06" r="5.8" fill="#2563eb" opacity="0.68"/>
<circle cx="681.32" cy="449.54" r="5.8" fill="#2563eb" opacity="0.68"/>
<circle cx="684.37" cy="314.45" r="5.8" fill="#2563eb" opacity="0.68"/>
<circle cx="687.42" cy="316.90" r="5.8" fill="#2563eb" opacity="0.68"/>
<circle cx="690.47" cy="419.40" r="5.8" fill="#2563eb" opacity="0.68"/>
<circle cx="693.53" cy="465.86" r="5.8" fill="#2563eb" opacity="0.68"/>
<circle cx="696.58" cy="411.75" r="5.8" fill="#2563eb" opacity="0.68"/>
<circle cx="699.63" cy="535.27" r="5.8" fill="#2563eb" opacity="0.68"/>
<circle cx="702.68" cy="451.95" r="5.8" fill="#2563eb" opacity="0.68"/>
<circle cx="705.74" cy="533.62" r="5.8" fill="#2563eb" opacity="0.68"/>
<circle cx="708.79" cy="548.34" r="5.8" fill="#2563eb" opacity="0.68"/>
<circle cx="711.84" cy="506.54" r="5.8" fill="#2563eb" opacity="0.68"/>
<circle cx="714.89" cy="497.52" r="5.8" fill="#2563eb" opacity="0.68"/>
<circle cx="717.95" cy="501.49" r="5.8" fill="#2563eb" opacity="0.68"/>
<circle cx="721.00" cy="566.86" r="5.8" fill="#2563eb" opacity="0.68"/>
<line x1="664.00" y1="464.42" x2="720.00" y2="464.42" stroke="#111827" stroke-width="3.6"/>
<polygon points="692.00,452.42 704.00,464.42 692.00,476.42 680.00,464.42" fill="#111827"/>
<text x="692.00" y="434.42" font-family="Arial" font-size="22" fill="#111827" text-anchor="middle">avg 15,526</text>
<circle cx="1123.34" cy="661.10" r="5.8" fill="#2563eb" opacity="0.68"/>
<circle cx="1126.40" cy="520.07" r="5.8" fill="#2563eb" opacity="0.68"/>
<circle cx="1129.45" cy="437.50" r="5.8" fill="#2563eb" opacity="0.68"/>
<circle cx="1132.50" cy="244.87" r="5.8" fill="#2563eb" opacity="0.68"/>
<circle cx="1135.56" cy="347.55" r="5.8" fill="#2563eb" opacity="0.68"/>
<circle cx="1138.61" cy="606.06" r="5.8" fill="#2563eb" opacity="0.68"/>
<circle cx="1141.66" cy="417.10" r="5.8" fill="#2563eb" opacity="0.68"/>
<circle cx="1144.71" cy="378.99" r="5.8" fill="#2563eb" opacity="0.68"/>
<circle cx="1147.77" cy="313.12" r="5.8" fill="#2563eb" opacity="0.68"/>
<circle cx="1150.82" cy="398.43" r="5.8" fill="#2563eb" opacity="0.68"/>
<circle cx="1153.87" cy="477.70" r="5.8" fill="#2563eb" opacity="0.68"/>
<circle cx="1156.92" cy="406.20" r="5.8" fill="#2563eb" opacity="0.68"/>
<circle cx="1159.98" cy="551.62" r="5.8" fill="#2563eb" opacity="0.68"/>
<circle cx="1163.03" cy="446.29" r="5.8" fill="#2563eb" opacity="0.68"/>
<circle cx="1166.08" cy="533.62" r="5.8" fill="#2563eb" opacity="0.68"/>
<circle cx="1169.13" cy="554.96" r="5.8" fill="#2563eb" opacity="0.68"/>
<circle cx="1172.19" cy="512.44" r="5.8" fill="#2563eb" opacity="0.68"/>
<circle cx="1175.24" cy="497.52" r="5.8" fill="#2563eb" opacity="0.68"/>
<circle cx="1178.29" cy="501.49" r="5.8" fill="#2563eb" opacity="0.68"/>
<circle cx="1181.34" cy="530.40" r="5.8" fill="#2563eb" opacity="0.68"/>
<line x1="1124.34" y1="466.85" x2="1180.34" y2="466.85" stroke="#111827" stroke-width="3.6"/>
<polygon points="1152.34,454.85 1164.34,466.85 1152.34,478.85 1140.34,466.85" fill="#111827"/>
<circle cx="1152.34" cy="466.85" r="18" fill="none" stroke="#111827" stroke-width="2.8"/>
<text x="1152.34" y="436.85" font-family="Arial" font-size="22" fill="#111827" text-anchor="middle">avg 15,514</text>
<circle cx="172" cy="852" r="10" fill="#2563eb" opacity="0.68"/>
<text x="204" y="862" font-family="Arial" font-size="30" fill="#374151">Colored dots: individual test runs (20 runs per value)</text>
<line x1="158" y1="920" x2="216" y2="920" stroke="#111827" stroke-width="3.8"/>
<polygon points="187.00,908.00 199.00,920.00 187.00,932.00 175.00,920.00" fill="#111827"/>
<text x="242" y="930" font-family="Arial" font-size="30" fill="#374151">Black marker: average for tested value</text>
<text x="692.00" y="796" font-family="Arial" font-size="32" fill="#4b5563" text-anchor="middle">Tested value</text>
<text x="42" y="418.00" font-family="Arial" font-size="32" fill="#4b5563" text-anchor="middle" transform="rotate(-90 42 418.00)">Best distance</text>
</svg>