<svg xmlns="http://www.w3.org/2000/svg" width="920" height="560" viewBox="0 0 920 560">
<rect width="100%" height="100%" fill="white"/>
<text x="28" y="38" font-family="Arial" font-size="24" font-weight="700" fill="#111827">Nearest Neighbor Pheromone</text>
<text x="28" y="64" font-family="Arial" font-size="13" fill="#4b5563">Each colored dot is one test run. Black diamonds and labels show the average for each tested value (20 runs per value). Lower is better.</text>
<text x="28" y="84" font-family="Arial" font-size="13" fill="#111827">Best value: 2 = 15,514 | Overall average: 15,537</text>
<line x1="92" y1="468.00" x2="876" y2="468.00" stroke="#e5e7eb" stroke-width="1"/>
<text x="80" y="472.00" font-family="Arial" font-size="11" fill="#4b5563" text-anchor="end">14,370</text>
<line x1="92" y1="394.40" x2="876" y2="394.40" stroke="#e5e7eb" stroke-width="1"/>
<text x="80" y="398.40" font-family="Arial" font-size="11" fill="#4b5563" text-anchor="end">14,924</text>
<line x1="92" y1="320.80" x2="876" y2="320.80" stroke="#e5e7eb" stroke-width="1"/>
<text x="80" y="324.80" font-family="Arial" font-size="11" fill="#4b5563" text-anchor="end">15,477</text>
<line x1="92" y1="247.20" x2="876" y2="247.20" stroke="#e5e7eb" stroke-width="1"/>
<text x="80" y="251.20" font-family="Arial" font-size="11" fill="#4b5563" text-anchor="end">16,030</text>
<line x1="92" y1="173.60" x2="876" y2="173.60" stroke="#e5e7eb" stroke-width="1"/>
<text x="80" y="177.60" font-family="Arial" font-size="11" fill="#4b5563" text-anchor="end">16,583</text>
<line x1="92" y1="100.00" x2="876" y2="100.00" stroke="#e5e7eb" stroke-width="1"/>
<text x="80" y="104.00" font-family="Arial" font-size="11" fill="#4b5563" text-anchor="end">17,137</text>
<line x1="146.07" y1="100" x2="146.07" y2="468" stroke="#f3f4f6" stroke-width="1"/>
<text x="146.07" y="494" font-family="Arial" font-size="12" fill="#374151" text-anchor="middle">1</text>
<line x1="213.66" y1="100" x2="213.66" y2="468" stroke="#f3f4f6" stroke-width="1"/>
<text x="213.66" y="494" font-family="Arial" font-size="12" fill="#374151" text-anchor="middle">1.1</text>
<line x1="315.03" y1="100" x2="315.03" y2="468" stroke="#f3f4f6" stroke-width="1"/>
<text x="315.03" y="494" font-family="Arial" font-size="12" fill="#374151" text-anchor="middle">1.25</text>
<line x1="484.00" y1="100" x2="484.00" y2="468" stroke="#f3f4f6" stroke-width="1"/>
<text x="484.00" y="494" font-family="Arial" font-size="12" fill="#374151" text-anchor="middle">1.5</text>
<line x1="821.93" y1="100" x2="821.93" y2="468" stroke="#f3f4f6" stroke-width="1"/>
<text x="821.93" y="494" font-family="Arial" font-size="12" fill="#374151" text-anchor="middle">2</text>
<line x1="92" y1="468" x2="876" y2="468" stroke="#9ca3af"/>
<line x1="92" y1="100" x2="92" y2="468" stroke="#9ca3af"/>
<polyline fill="none" stroke="#111827" stroke-width="1.4" opacity="0.55" stroke-dasharray="5 5" points="146.07,312.44 213.66,312.19 315.03,308.98 484.00,314.29 821.93,315.88"/>
<circle cx="129.07" cy="442.62" r="3.2" fill="#2563eb" opacity="0.68"/>
<circle cx="130.86" cy="336.82" r="3.2" fill="#2563eb" opacity="0.68"/>
<circle cx="132.65" cy="284.11" r="3.2" fill="#2563eb" opacity="0.68"/>
<circle cx="134.44" cy="125.38" r="3.2" fill="#2563eb" opacity="0.68"/>
<circle cx="136.23" cy="232.32" r="3.2" fill="#2563eb" opacity="0.68"/>
<circle cx="138.02" cy="406.71" r="3.2" fill="#2563eb" opacity="0.68"/>
<circle cx="139.81" cy="278.99" r="3.2" fill="#2563eb" opacity="0.68"/>
<circle cx="141.60" cy="279.93" r="3.2" fill="#2563eb" opacity="0.68"/>
<circle cx="143.38" cy="219.15" r="3.2" fill="#2563eb" opacity="0.68"/>
<circle cx="145.17" cy="271.23" r="3.2" fill="#2563eb" opacity="0.68"/>
<circle cx="146.96" cy="325.71" r="3.2" fill="#2563eb" opacity="0.68"/>
<circle cx="148.75" cy="265.57" r="3.2" fill="#2563eb" opacity="0.68"/>
<circle cx="150.54" cy="366.08" r="3.2" fill="#2563eb" opacity="0.68"/>
<circle cx="152.33" cy="292.89" r="3.2" fill="#2563eb" opacity="0.68"/>
<circle cx="154.12" cy="365.88" r="3.2" fill="#2563eb" opacity="0.68"/>
<circle cx="155.91" cy="372.43" r="3.2" fill="#2563eb" opacity="0.68"/>
<circle cx="157.70" cy="341.77" r="3.2" fill="#2563eb" opacity="0.68"/>
<circle cx="159.49" cy="337.93" r="3.2" fill="#2563eb" opacity="0.68"/>
<circle cx="161.28" cy="331.86" r="3.2" fill="#2563eb" opacity="0.68"/>
<circle cx="163.07" cy="371.34" r="3.2" fill="#2563eb" opacity="0.68"/>
<line x1="128.07" y1="312.44" x2="164.07" y2="312.44" stroke="#111827" stroke-width="2.1"/>
<polygon points="146.07,306.44 152.07,312.44 146.07,318.44 140.07,312.44" fill="#111827"/>
<text x="146.07" y="297.44" font-family="Arial" font-size="11" fill="#111827" text-anchor="middle">avg 15,540</text>
<circle cx="196.66" cy="442.62" r="3.2" fill="#2563eb" opacity="0.68"/>
<circle cx="198.44" cy="335.54" r="3.2" fill="#2563eb" opacity="0.68"/>
<circle cx="200.23" cy="276.81" r="3.2" fill="#2563eb" opacity="0.68"/>
<circle cx="202.02" cy="165.02" r="3.2" fill="#2563eb" opacity="0.68"/>
<circle cx="203.81" cy="234.69" r="3.2" fill="#2563eb" opacity="0.68"/>
<circle cx="205.60" cy="406.71" r="3.2" fill="#2563eb" opacity="0.68"/>
<circle cx="207.39" cy="257.86" r="3.2" fill="#2563eb" opacity="0.68"/>
<circle cx="209.18" cy="279.93" r="3.2" fill="#2563eb" opacity="0.68"/>
<circle cx="210.97" cy="213.50" r="3.2" fill="#2563eb" opacity="0.68"/>
<circle cx="212.76" cy="284.91" r="3.2" fill="#2563eb" opacity="0.68"/>
<circle cx="214.55" cy="317.55" r="3.2" fill="#2563eb" opacity="0.68"/>
<circle cx="216.34" cy="263.02" r="3.2" fill="#2563eb" opacity="0.68"/>
<circle cx="218.13" cy="355.24" r="3.2" fill="#2563eb" opacity="0.68"/>
<circle cx="219.92" cy="296.16" r="3.2" fill="#2563eb" opacity="0.68"/>
<circle cx="221.71" cy="366.33" r="3.2" fill="#2563eb" opacity="0.68"/>
<circle cx="223.50" cy="348.92" r="3.2" fill="#2563eb" opacity="0.68"/>
<circle cx="225.29" cy="341.77" r="3.2" fill="#2563eb" opacity="0.68"/>
<circle cx="227.08" cy="335.89" r="3.2" fill="#2563eb" opacity="0.68"/>
<circle cx="228.87" cy="340.14" r="3.2" fill="#2563eb" opacity="0.68"/>
<circle cx="230.66" cy="381.13" r="3.2" fill="#2563eb" opacity="0.68"/>
<line x1="195.66" y1="312.19" x2="231.66" y2="312.19" stroke="#111827" stroke-width="2.1"/>
<polygon points="213.66,306.19 219.66,312.19 213.66,318.19 207.66,312.19" fill="#111827"/>
<text x="213.66" y="297.19" font-family="Arial" font-size="11" fill="#111827" text-anchor="middle">avg 15,542</text>
<circle cx="298.03" cy="441.28" r="3.2" fill="#2563eb" opacity="0.68"/>
<circle cx="299.82" cy="302.24" r="3.2" fill="#2563eb" opacity="0.68"/>
<circle cx="301.61" cy="297.10" r="3.2" fill="#2563eb" opacity="0.68"/>
<circle cx="303.40" cy="125.38" r="3.2" fill="#2563eb" opacity="0.68"/>
<circle cx="305.19" cy="232.32" r="3.2" fill="#2563eb" opacity="0.68"/>
<circle cx="306.98" cy="413.17" r="3.2" fill="#2563eb" opacity="0.68"/>
<circle cx="308.77" cy="261.56" r="3.2" fill="#2563eb" opacity="0.68"/>
<circle cx="310.56" cy="279.93" r="3.2" fill="#2563eb" opacity="0.68"/>
<circle cx="312.35" cy="212.58" r="3.2" fill="#2563eb" opacity="0.68"/>
<circle cx="314.14" cy="284.91" r="3.2" fill="#2563eb" opacity="0.68"/>
<circle cx="315.93" cy="310.71" r="3.2" fill="#2563eb" opacity="0.68"/>
<circle cx="317.72" cy="277.62" r="3.2" fill="#2563eb" opacity="0.68"/>
<circle cx="319.51" cy="350.66" r="3.2" fill="#2563eb" opacity="0.68"/>
<circle cx="321.30" cy="292.89" r="3.2" fill="#2563eb" opacity="0.68"/>
<circle cx="323.09" cy="366.33" r="3.2" fill="#2563eb" opacity="0.68"/>
<circle cx="324.88" cy="348.92" r="3.2" fill="#2563eb" opacity="0.68"/>
<circle cx="326.67" cy="341.77" r="3.2" fill="#2563eb" opacity="0.68"/>
<circle cx="328.46" cy="335.89" r="3.2" fill="#2563eb" opacity="0.68"/>
<circle cx="330.25" cy="329.47" r="3.2" fill="#2563eb" opacity="0.68"/>
<circle cx="332.03" cy="374.87" r="3.2" fill="#2563eb" opacity="0.68"/>
<line x1="297.03" y1="308.98" x2="333.03" y2="308.98" stroke="#111827" stroke-width="2.1"/>
<polygon points="315.03,302.98 321.03,308.98 315.03,314.98 309.03,308.98" fill="#111827"/>
<text x="315.03" y="293.98" font-family="Arial" font-size="11" fill="#111827" text-anchor="middle">avg 15,566</text>
<circle cx="467.00" cy="442.62" r="3.2" fill="#2563eb" opacity="0.68"/>
<circle cx="468.79" cy="341.66" r="3.2" fill="#2563eb" opacity="0.68"/>
<circle cx="470.58" cy="291.77" r="3.2" fill="#2563eb" opacity="0.68"/>
<circle cx="472.37" cy="164.86" r="3.2" fill="#2563eb" opacity="0.68"/>
<circle cx="474.16" cy="226.64" r="3.2" fill="#2563eb" opacity="0.68"/>
<circle cx="475.95" cy="406.71" r="3.2" fill="#2563eb" opacity="0.68"/>
<circle cx="477.74" cy="304.58" r="3.2" fill="#2563eb" opacity="0.68"/>
<circle cx="479.53" cy="216.44" r="3.2" fill="#2563eb" opacity="0.68"/>
<circle cx="481.32" cy="218.03" r="3.2" fill="#2563eb" opacity="0.68"/>
<circle cx="483.11" cy="284.91" r="3.2" fill="#2563eb" opacity="0.68"/>
<circle cx="484.89" cy="315.23" r="3.2" fill="#2563eb" opacity="0.68"/>
<circle cx="486.68" cy="279.92" r="3.2" fill="#2563eb" opacity="0.68"/>
<circle cx="488.47" cy="360.52" r="3.2" fill="#2563eb" opacity="0.68"/>
<circle cx="490.26" cy="306.15" r="3.2" fill="#2563eb" opacity="0.68"/>
<circle cx="492.05" cy="359.44" r="3.2" fill="#2563eb" opacity="0.68"/>
<circle cx="493.84" cy="369.05" r="3.2" fill="#2563eb" opacity="0.68"/>
<circle cx="495.63" cy="341.77" r="3.2" fill="#2563eb" opacity="0.68"/>
<circle cx="497.42" cy="335.89" r="3.2" fill="#2563eb" opacity="0.68"/>
<circle cx="499.21" cy="338.48" r="3.2" fill="#2563eb" opacity="0.68"/>
<circle cx="501.00" cy="381.13" r="3.2" fill="#2563eb" opacity="0.68"/>
<line x1="466.00" y1="314.29" x2="502.00" y2="314.29" stroke="#111827" stroke-width="2.1"/>
<polygon points="484.00,308.29 490.00,314.29 484.00,320.29 478.00,314.29" fill="#111827"/>
<text x="484.00" y="299.29" font-family="Arial" font-size="11" fill="#111827" text-anchor="middle">avg 15,526</text>
<circle cx="804.93" cy="442.62" r="3.2" fill="#2563eb" opacity="0.68"/>
<circle cx="806.72" cy="350.60" r="3.2" fill="#2563eb" opacity="0.68"/>
<circle cx="808.51" cy="296.72" r="3.2" fill="#2563eb" opacity="0.68"/>
<circle cx="810.30" cy="171.04" r="3.2" fill="#2563eb" opacity="0.68"/>
<circle cx="812.09" cy="238.03" r="3.2" fill="#2563eb" opacity="0.68"/>
<circle cx="813.88" cy="406.71" r="3.2" fill="#2563eb" opacity="0.68"/>
<circle cx="815.67" cy="283.41" r="3.2" fill="#2563eb" opacity="0.68"/>
<circle cx="817.46" cy="258.55" r="3.2" fill="#2563eb" opacity="0.68"/>
<circle cx="819.25" cy="215.57" r="3.2" fill="#2563eb" opacity="0.68"/>
<circle cx="821.04" cy="271.23" r="3.2" fill="#2563eb" opacity="0.68"/>
<circle cx="822.83" cy="322.95" r="3.2" fill="#2563eb" opacity="0.68"/>
<circle cx="824.62" cy="276.30" r="3.2" fill="#2563eb" opacity="0.68"/>
<circle cx="826.40" cy="371.19" r="3.2" fill="#2563eb" opacity="0.68"/>
<circle cx="828.19" cy="302.46" r="3.2" fill="#2563eb" opacity="0.68"/>
<circle cx="829.98" cy="359.44" r="3.2" fill="#2563eb" opacity="0.68"/>
<circle cx="831.77" cy="373.36" r="3.2" fill="#2563eb" opacity="0.68"/>
<circle cx="833.56" cy="345.62" r="3.2" fill="#2563eb" opacity="0.68"/>
<circle cx="835.35" cy="335.89" r="3.2" fill="#2563eb" opacity="0.68"/>
<circle cx="837.14" cy="338.48" r="3.2" fill="#2563eb" opacity="0.68"/>
<circle cx="838.93" cy="357.34" r="3.2" fill="#2563eb" opacity="0.68"/>
<line x1="803.93" y1="315.88" x2="839.93" y2="315.88" stroke="#111827" stroke-width="2.1"/>
<polygon points="821.93,309.88 827.93,315.88 821.93,321.88 815.93,315.88" fill="#111827"/>
<circle cx="821.93" cy="315.88" r="9" fill="none" stroke="#111827" stroke-width="1.6"/>
<text x="821.93" y="300.88" font-family="Arial" font-size="11" fill="#111827" text-anchor="middle">avg 15,514</text>
<text x="484.00" y="528" font-family="Arial" font-size="12" fill="#4b5563" text-anchor="middle">Tested value</text>
<text x="20" y="284.00" font-family="Arial" font-size="12" fill="#4b5563" text-anchor="middle" transform="rotate(-90 20 284.00)">Best distance</text>
</svg>